<svg width="24" height="25" viewBox="0 0 24 25" fill="none" xmlns="http://www.w3.org/2000/svg">
<g id="Linear / Security / Lock Password">
<path id="Vector" d="M2 16.5C2 13.6716 2 12.2574 2.87868 11.3787C3.75736 10.5 5.17157 10.5 8 10.5H16C18.8284 10.5 20.2426 10.5 21.1213 11.3787C22 12.2574 22 13.6716 22 16.5C22 19.3284 22 20.7426 21.1213 21.6213C20.2426 22.5 18.8284 22.5 16 22.5H8C5.17157 22.5 3.75736 22.5 2.87868 21.6213C2 20.7426 2 19.3284 2 16.5Z" stroke="#C1C1C1" stroke-width="1.5"/>
<path id="Vector_2" d="M6 10.5V8.5C6 5.18629 8.68629 2.5 12 2.5C15.3137 2.5 18 5.18629 18 8.5V10.5" stroke="#C1C1C1" stroke-width="1.5" stroke-linecap="round"/>
<path id="Vector_3" d="M8 16.5H8.009M11.991 16.5H12M15.991 16.5H16" stroke="#C1C1C1" stroke-width="2" stroke-linecap="round" stroke-linejoin="round"/>
</g>
</svg>
