<svg width="33" height="31" viewBox="0 0 33 31" fill="none" xmlns="http://www.w3.org/2000/svg">
<g id="VSF" clip-path="url(#clip0_454_290)">
<g id="Group">
<g id="svg 1">
<path id="svg 2" d="M30.0222 23.6645C30.0494 23.9829 29.8009 24.2565 29.4846 24.2565H3.46924C3.15373 24.2565 2.90553 23.9842 2.93156 23.6664L4.7959 0.912147C4.8191 0.629495 5.05287 0.411987 5.33372 0.411987H27.5426C27.8226 0.411987 28.0561 0.628405 28.0801 0.910239L30.0222 23.6645Z" fill="#1DCF65"/>
<path id="svg 3" d="M32.0989 29.6011C32.1314 29.9983 31.8211 30.3387 31.4268 30.3387H1.59444C1.20096 30.3387 0.890983 29.9999 0.922143 29.6035L3.06382 2.34693C3.09174 1.99246 3.38432 1.71948 3.73612 1.71948H29.1959C29.5469 1.71948 29.8392 1.99137 29.868 2.34475L32.0989 29.6011Z" fill="url(#paint0_linear_454_290)"/>
</g>
<g id="svg 17">
<g id="svg 18">
<path id="svg 19" d="M15.9232 21.6952C12.0402 21.6952 8.88129 17.8631 8.88129 13.1527C8.88129 12.9074 9.07809 12.7084 9.32103 12.7084C9.56397 12.7084 9.76078 12.9073 9.76078 13.1527C9.76078 17.3731 12.5253 20.8067 15.9233 20.8067C19.3214 20.8067 22.0858 17.3731 22.0858 13.1527C22.0858 12.9074 22.2826 12.7084 22.5256 12.7084C22.7685 12.7084 22.9653 12.9073 22.9653 13.1527C22.9652 17.8631 19.8062 21.6952 15.9232 21.6952Z" fill="white"/>
</g>
<g id="svg 20">
<path id="svg 21" d="M20.2578 13.0336C20.1453 13.0336 20.0328 12.9903 19.9469 12.9034C19.7752 12.73 19.7752 12.4487 19.9469 12.2752L22.2258 9.9728C22.3082 9.88953 22.42 9.84265 22.5367 9.84265C22.6534 9.84265 22.7652 9.8894 22.8476 9.9728L25.1042 12.2528C25.2759 12.4263 25.2759 12.7076 25.1042 12.8811C24.9325 13.0544 24.6541 13.0546 24.4824 12.8811L22.5366 10.9153L20.5688 12.9034C20.4828 12.9903 20.3703 13.0336 20.2578 13.0336Z" fill="white"/>
</g>
</g>
</g>
</g>
<defs>
<linearGradient id="paint0_linear_454_290" x1="25.8734" y1="26.3334" x2="7.51331" y2="4.90055" gradientUnits="userSpaceOnUse">
<stop stop-color="#52D67A"/>
<stop offset="1" stop-color="#5AEE87"/>
</linearGradient>
<clipPath id="clip0_454_290">
<rect width="31.16" height="30.176" fill="white" transform="translate(0.919983 0.411987)"/>
</clipPath>
</defs>
</svg>
